<svg width="8" height="8" viewBox="0 0 8 8" fill="none" xmlns="http://www.w3.org/2000/svg">
<g clip-path="url(#clip0_10211_251)">
<path d="M0.375 0.521484C0.375137 0.440645 0.440645 0.375137 0.521484 0.375L7.47852 0.375C7.55936 0.375137 7.62486 0.440645 7.625 0.521484L7.625 7.47852C7.62486 7.55936 7.55936 7.62486 7.47852 7.625C7.39756 7.625 7.33119 7.55944 7.33105 7.47852L7.33105 1.78125C7.33102 1.62961 7.23971 1.4926 7.09961 1.43457C6.95959 1.37679 6.79854 1.40947 6.69141 1.5166L0.625977 7.58203C0.583062 7.62495 0.51974 7.63562 0.466797 7.61426L0.417969 7.58203C0.374946 7.53901 0.364164 7.47588 0.385742 7.42285L0.417969 7.37402L6.4834 1.30859C6.59053 1.20146 6.62321 1.04041 6.56543 0.900391C6.5074 0.760287 6.37039 0.668977 6.21875 0.668945L0.521484 0.668945C0.44056 0.668808 0.375 0.602442 0.375 0.521484Z" fill="white" stroke="white" stroke-width="0.75" stroke-linecap="round" stroke-linejoin="round"/>
</g>
<defs>
<clipPath id="clip0_10211_251">
<rect width="8" height="8" fill="white"/>
</clipPath>
</defs>
</svg>
