<svg width="40" height="40" viewBox="0 0 40 40" fill="none" xmlns="http://www.w3.org/2000/svg">
<path d="M15.145 7.75H25.86C29.805 7.75 33.005 10.95 33.005 14.895V25.61C33.005 29.555 29.805 32.755 25.86 32.755H15.145C11.2 32.755 8 29.555 8 25.61V14.895C8 10.95 11.2 7.75 15.145 7.75Z" fill="#FFDD00"/>
<path fill-rule="evenodd" clip-rule="evenodd" d="M34.96 21.295C34.46 20.755 33.795 20.465 33.115 20.425C33.045 20.345 32.975 20.27 32.9 20.195C31.495 18.84 29.525 18.9 29.475 18.9H21.78C21.69 18.69 21.575 18.485 21.41 18.31C20.66 17.5 19.395 17.45 18.585 18.2C18.365 18.405 18.205 18.645 18.1 18.905H10.985C10.96 18.905 10.925 18.905 10.895 18.905C10.885 18.905 9.71001 18.995 8.95501 18.3C8.91001 18.255 8.87501 18.2 8.83501 18.15C9.92001 17.115 9.98001 15.4 8.96001 14.295C8.93501 14.265 8.90001 14.245 8.87501 14.22C9.58501 13.345 10.685 13.26 10.985 13.255H21.705C21.725 13.89 21.955 14.525 22.42 15.025C23.45 16.14 25.19 16.21 26.305 15.18C27.42 14.15 27.49 12.41 26.46 11.295C25.43 10.18 23.69 10.11 22.575 11.14C22.535 11.175 22.51 11.215 22.475 11.255H10.985C9.845 11.255 7.99501 11.765 6.98001 13.415C6.30001 13.405 5.615 13.64 5.075 14.14C3.96 15.17 3.89001 16.91 4.92001 18.025C5.45501 18.605 6.18001 18.895 6.90501 18.9C7.10001 19.225 7.33501 19.525 7.62001 19.78C8.93001 20.97 10.645 20.915 11.025 20.89H18.38C18.41 20.93 18.435 20.975 18.475 21.015C19.225 21.825 20.49 21.875 21.3 21.125C21.38 21.05 21.445 20.97 21.51 20.89H29.515C29.515 20.89 30.28 20.88 30.985 21.245C29.975 22.285 29.93 23.94 30.93 25.02C31.165 25.275 31.445 25.47 31.74 25.615C31.675 25.71 31.61 25.805 31.53 25.885C30.75 26.66 29.545 26.675 29.49 26.675H16.515C16.395 26.355 16.215 26.055 15.97 25.79C14.94 24.675 13.2 24.605 12.085 25.635C10.97 26.665 10.9 28.405 11.93 29.52C12.96 30.635 14.7 30.705 15.815 29.675C16.125 29.39 16.345 29.045 16.495 28.675H29.495C29.755 28.675 31.59 28.63 32.92 27.325C33.38 26.875 33.72 26.335 33.945 25.715C34.26 25.595 34.555 25.42 34.82 25.175C35.935 24.145 36.005 22.405 34.975 21.29L34.96 21.295Z" fill="#212121"/>
</svg>
