<svg width="40" height="40" viewBox="0 0 40 40" fill="none" xmlns="http://www.w3.org/2000/svg">
<path d="M20.95 33.1599C28.1297 33.1599 33.95 27.3396 33.95 20.1599C33.95 12.9802 28.1297 7.15991 20.95 7.15991C13.7702 7.15991 7.94995 12.9802 7.94995 20.1599C7.94995 27.3396 13.7702 33.1599 20.95 33.1599Z" fill="#FFDD00"/>
<path fill-rule="evenodd" clip-rule="evenodd" d="M31.26 10.635C26.01 4.96505 17.115 4.61503 11.435 9.85503C8.90004 12.19 7.32004 15.365 6.99004 18.79C6.99004 18.8 6.99004 18.81 6.99004 18.82C5.92504 19.2 5.16504 20.215 5.16504 21.41C5.16504 22.93 6.39504 24.16 7.91504 24.16C9.43504 24.16 10.665 22.93 10.665 21.41C10.665 20.275 9.98004 19.3 8.99504 18.88C9.30004 15.985 10.645 13.31 12.79 11.33C17.665 6.84004 25.29 7.14004 29.79 12C31.97 14.355 33.1 17.415 32.975 20.615C32.85 23.82 31.48 26.78 29.12 28.955C24.245 33.445 16.62 33.145 12.12 28.285C11.745 27.88 11.11 27.855 10.705 28.23C10.3 28.605 10.275 29.24 10.65 29.645C13.41 32.625 17.18 34.135 20.96 34.135C24.365 34.135 27.78 32.91 30.475 30.425C33.23 27.885 34.825 24.43 34.975 20.695C35.125 16.96 33.805 13.39 31.26 10.64V10.635Z" fill="#212121"/>
<path fill-rule="evenodd" clip-rule="evenodd" d="M19.325 24.2799C19.09 24.0699 18.915 23.8399 18.8 23.5899C18.685 23.3399 18.55 22.9749 18.39 22.4999C18.32 22.2799 18.195 22.1099 18.015 21.9899C17.835 21.8699 17.615 21.8049 17.355 21.8049C17.03 21.8049 16.76 21.9149 16.545 22.1399C16.33 22.3649 16.22 22.6149 16.22 22.8899C16.22 23.2649 16.3 23.6499 16.465 24.0399C16.625 24.4299 16.875 24.8049 17.215 25.1699C17.555 25.5299 17.975 25.8349 18.485 26.0799C18.99 26.3249 19.585 26.4799 20.26 26.5549V27.7449C20.26 28.0099 20.3 28.2099 20.385 28.3349C20.47 28.4599 20.615 28.5249 20.825 28.5249C21.05 28.5249 21.195 28.4449 21.265 28.2899C21.33 28.1349 21.365 27.8849 21.365 27.5449V26.5349C22.19 26.4649 22.905 26.2499 23.51 25.8849C24.11 25.5199 24.565 25.0499 24.88 24.4749C25.19 23.8999 25.345 23.2799 25.345 22.6199C25.345 22.0949 25.25 21.6099 25.055 21.1649C24.86 20.7199 24.585 20.3399 24.225 20.0249C23.89 19.7199 23.51 19.4849 23.085 19.3199C22.66 19.1599 22.09 18.9799 21.37 18.7799V15.1699C22.1 15.4099 22.56 15.8899 22.75 16.6099C22.92 17.2249 23.285 17.5299 23.855 17.5299C24.155 17.5299 24.41 17.4249 24.625 17.2149C24.835 17.0049 24.94 16.7549 24.94 16.4649C24.94 16.2049 24.87 15.9199 24.73 15.6049C24.59 15.2899 24.385 14.9899 24.125 14.6949C23.795 14.3049 23.41 14.0149 22.965 13.8249C22.525 13.6349 21.99 13.5049 21.37 13.4449V12.5049C21.37 12.0299 21.185 11.7949 20.815 11.7949C20.445 11.7949 20.27 12.0399 20.27 12.5249V13.4449C19.07 13.5499 18.155 13.9199 17.52 14.5549C16.885 15.1899 16.57 16.0099 16.57 17.0049C16.57 17.7699 16.73 18.3949 17.055 18.8799C17.38 19.3649 17.8 19.7399 18.325 20.0049C18.845 20.2699 19.495 20.5049 20.27 20.7199V24.7549C19.88 24.6449 19.57 24.4849 19.335 24.2799H19.325ZM21.36 21.0399C21.96 21.2299 22.415 21.4649 22.73 21.7399C23.04 22.0149 23.195 22.4049 23.195 22.9099C23.195 23.3799 23.035 23.7899 22.72 24.1449C22.4 24.4999 21.95 24.7349 21.365 24.8499V21.0449L21.36 21.0399ZM19.095 17.8249C18.84 17.5899 18.715 17.2449 18.715 16.7899C18.715 16.3099 18.85 15.9499 19.125 15.7149C19.395 15.4749 19.775 15.2849 20.265 15.1399V18.4649C19.745 18.2749 19.355 18.0599 19.1 17.8249H19.095Z" fill="#212121"/>
</svg>
