<svg width="40" height="40" viewBox="0 0 40 40" fill="none" xmlns="http://www.w3.org/2000/svg">
<path fill-rule="evenodd" clip-rule="evenodd" d="M14.5 12.5C11.7386 12.5 9.5 14.7386 9.5 17.5V23.5C9.5 26.2614 11.7386 28.5 14.5 28.5H26.5C29.2614 28.5 31.5 26.2614 31.5 23.5H25.75C23.6789 23.5 22 21.8211 22 19.75C22 17.6789 23.6789 16 25.75 16H31.2711C31.4198 16.4735 31.5 16.9774 31.5 17.5V16H31.2711C30.634 13.9714 28.7388 12.5 26.5 12.5H14.5Z" fill="#FFDD00"/>
<path fill-rule="evenodd" clip-rule="evenodd" d="M11 20.75C11 19.7701 10.3739 18.9368 9.5 18.628V15C9.5 13.6193 10.6193 12.5 12 12.5H28C29.3807 12.5 30.5 13.6193 30.5 15V15.5H25.5C23.0147 15.5 21 17.5147 21 20C21 22.4853 23.0147 24.5 25.5 24.5H30.5V25.5C30.5 26.8807 29.3807 28 28 28H13.25C12.8358 28 12.5 28.3358 12.5 28.75C12.5 29.1642 12.8358 29.5 13.25 29.5H28C30.2091 29.5 32 27.7091 32 25.5V25C32 23.8954 31.1046 23 30 23H25.5C23.8431 23 22.5 21.6569 22.5 20C22.5 18.3431 23.8431 17 25.5 17H30C31.1046 17 32 16.1046 32 15C32 12.7909 30.2091 11 28 11H12C9.79086 11 8 12.7909 8 15V18.628C7.12611 18.9369 6.5 19.7702 6.5 20.75C6.5 21.9926 7.50751 23 8.75012 23C9.99273 23 11 21.9926 11 20.75ZM9.5 20.75C9.5 21.1642 9.16427 21.5 8.75012 21.5C8.33589 21.5 8 21.1642 8 20.75C8 20.3357 8.33578 20 8.75012 20C9.16438 20 9.5 20.3356 9.5 20.75ZM26 21.5C26.8284 21.5 27.5 20.8284 27.5 20C27.5 19.1716 26.8284 18.5 26 18.5C25.1716 18.5 24.5 19.1716 24.5 20C24.5 20.8284 25.1716 21.5 26 21.5Z" fill="#212121"/>
<mask id="mask0_120_191" style="mask-type:luminance" maskUnits="userSpaceOnUse" x="6" y="11" width="26" height="19">
<path fill-rule="evenodd" clip-rule="evenodd" d="M11 20.75C11 19.7701 10.3739 18.9368 9.5 18.628V15C9.5 13.6193 10.6193 12.5 12 12.5H28C29.3807 12.5 30.5 13.6193 30.5 15V15.5H25.5C23.0147 15.5 21 17.5147 21 20C21 22.4853 23.0147 24.5 25.5 24.5H30.5V25.5C30.5 26.8807 29.3807 28 28 28H13.25C12.8358 28 12.5 28.3358 12.5 28.75C12.5 29.1642 12.8358 29.5 13.25 29.5H28C30.2091 29.5 32 27.7091 32 25.5V25C32 23.8954 31.1046 23 30 23H25.5C23.8431 23 22.5 21.6569 22.5 20C22.5 18.3431 23.8431 17 25.5 17H30C31.1046 17 32 16.1046 32 15C32 12.7909 30.2091 11 28 11H12C9.79086 11 8 12.7909 8 15V18.628C7.12611 18.9369 6.5 19.7702 6.5 20.75C6.5 21.9926 7.50751 23 8.75012 23C9.99273 23 11 21.9926 11 20.75ZM9.5 20.75C9.5 21.1642 9.16427 21.5 8.75012 21.5C8.33589 21.5 8 21.1642 8 20.75C8 20.3357 8.33578 20 8.75012 20C9.16438 20 9.5 20.3356 9.5 20.75ZM26 21.5C26.8284 21.5 27.5 20.8284 27.5 20C27.5 19.1716 26.8284 18.5 26 18.5C25.1716 18.5 24.5 19.1716 24.5 20C24.5 20.8284 25.1716 21.5 26 21.5Z" fill="white"/>
</mask>
<g mask="url(#mask0_120_191)">
<rect x="4" y="4" width="32" height="32" fill="#212121"/>
</g>
</svg>
