<svg width="40" height="40" viewBox="0 0 40 40" fill="none" xmlns="http://www.w3.org/2000/svg">
<path fill-rule="evenodd" clip-rule="evenodd" d="M9.25011 23C9.25011 26.25 18.2501 33.75 20.2501 33.75C22.2501 33.75 31.2501 26.25 31.2501 23V10.465C31.2501 10.04 30.9651 9.67 30.5601 9.56L20.4951 6.815C20.3351 6.77 20.1651 6.77 20.0001 6.815L9.93512 9.56C9.52512 9.67 9.24512 10.04 9.24512 10.465V23" fill="#FFDD00"/>
<path d="M19.005 24.0049H18.985C18.715 24.0049 18.455 23.8849 18.27 23.6849L15.02 20.195C14.645 19.79 14.665 19.1599 15.07 18.7799C15.475 18.4049 16.105 18.4249 16.485 18.8299L19.03 21.5599L24.8 15.7949C25.19 15.4049 25.825 15.4049 26.215 15.7949C26.605 16.1849 26.605 16.8199 26.215 17.2099L19.715 23.7099C19.525 23.8999 19.275 24.0049 19.01 24.0049H19.005Z" fill="#212121"/>
<path fill-rule="evenodd" clip-rule="evenodd" d="M30.825 8.60011L20.7649 5.8551C20.4299 5.7651 20.0749 5.7651 19.7449 5.8551L9.68495 8.60011C8.84495 8.83011 8.25495 9.6001 8.25495 10.4701V20.7001C7.94495 20.8201 7.64995 20.9951 7.38995 21.2351C6.27495 22.2651 6.20495 24.0051 7.23495 25.1201C8.26495 26.2351 10.0049 26.3051 11.1199 25.2751C12.2349 24.2451 12.3049 22.5051 11.2749 21.3901C10.9849 21.0751 10.63 20.8501 10.255 20.7051V10.5201L20.24 7.79011L30.255 10.5201V23.0051C30.255 23.9001 28.9099 26.0351 25.9049 28.7951C23.1949 31.2801 20.8399 32.7151 20.2649 32.7551C19.8099 32.7251 17.8149 31.6451 15.0499 29.1901C14.6349 28.8251 14.0049 28.8601 13.6399 29.2751C13.2749 29.6901 13.31 30.3201 13.725 30.6851C14.49 31.3651 18.4049 34.7551 20.2599 34.7551C22.8549 34.7551 32.2599 26.7751 32.2599 23.0051V10.4701C32.2599 9.6001 31.6749 8.83011 30.8299 8.60011H30.825Z" fill="#212121"/>
</svg>
